<?xml version="1.0" encoding="utf-8"?>
<!-- Generator: Adobe Illustrator 28.3.0, SVG Export Plug-In . SVG Version: 6.00 Build 0)  -->
<svg version="1.1" id="Capa_1" xmlns="http://www.w3.org/2000/svg" xmlns:xlink="http://www.w3.org/1999/xlink" x="0px" y="0px"
	 viewBox="0 0 10 10" style="enable-background:new 0 0 10 10;" xml:space="preserve">
<style type="text/css">
	.st0{fill:#FFFFFF;}
</style>
<g>
	<path class="st0" d="M9.3,9.8c-0.1,0-0.2,0-0.3-0.1L0.2,0.9C0,0.7,0,0.4,0.2,0.2s0.5-0.2,0.6,0L9.6,9c0.2,0.2,0.2,0.5,0,0.6
		C9.6,9.7,9.4,9.8,9.3,9.8z"/>
</g>
<g>
	<path class="st0" d="M0.5,9.8c-0.1,0-0.2,0-0.3-0.1C0,9.5,0,9.2,0.2,9L9,0.2C9.2,0,9.5,0,9.6,0.2c0.2,0.2,0.2,0.5,0,0.6L0.9,9.6
		C0.8,9.7,0.7,9.8,0.5,9.8z"/>
</g>
</svg>
