<?xml version="1.0" encoding="utf-8"?>
<!-- Generator: Adobe Illustrator 28.3.0, SVG Export Plug-In . SVG Version: 6.00 Build 0)  -->
<svg version="1.1" id="Capa_1" xmlns="http://www.w3.org/2000/svg" xmlns:xlink="http://www.w3.org/1999/xlink" x="0px" y="0px"
	 viewBox="0 0 9.9 9.9" style="enable-background:new 0 0 9.9 9.9;" xml:space="preserve">
<style type="text/css">
	.st0{fill:#FFFFFF;}
</style>
<g>
	<path class="st0" d="M9.3,1.5H0.6C0.3,1.5,0.1,1.3,0.1,1s0.2-0.5,0.5-0.5h8.8c0.3,0,0.5,0.2,0.5,0.5S9.6,1.5,9.3,1.5z"/>
</g>
<g>
	<path class="st0" d="M9.3,5.4H0.6c-0.3,0-0.5-0.2-0.5-0.5s0.2-0.5,0.5-0.5h8.8c0.3,0,0.5,0.2,0.5,0.5S9.6,5.4,9.3,5.4z"/>
</g>
<g>
	<path class="st0" d="M9.3,9.3H0.6c-0.3,0-0.5-0.2-0.5-0.5s0.2-0.5,0.5-0.5h8.8c0.3,0,0.5,0.2,0.5,0.5S9.6,9.3,9.3,9.3z"/>
</g>
</svg>
