<?xml version="1.0" encoding="UTF-8"?>
<svg id="Capa_1" data-name="Capa 1" xmlns="http://www.w3.org/2000/svg" viewBox="0 0 361.05 111.16">
  <defs>
    <style>
      .cls-1 {
        fill: #000;
      }

      .cls-1, .cls-2 {
        stroke-width: 0px;
      }

      .cls-2 {
        fill: #fff;
      }
    </style>
  </defs>
  <circle class="cls-1" cx="55.58" cy="55.58" r="55.58"/>
  <g>
    <path class="cls-2" d="M55.31,71.23c-14.15,0-25.66-11.51-25.66-25.66s11.51-25.66,25.66-25.66c6.85,0,13.3,2.67,18.14,7.51l-3.54,3.54c-3.9-3.9-9.09-6.05-14.61-6.05-11.39,0-20.66,9.27-20.66,20.66s9.27,20.66,20.66,20.66c5.77,0,11.12-2.32,15.07-6.53l3.65,3.42c-4.83,5.15-11.65,8.11-18.72,8.11Z"/>
    <polygon class="cls-2" points="54.44 83.03 54.44 67.98 77.65 67.98 77.65 62.98 54.44 62.98 54.44 47.1 80.65 47.1 80.65 42.1 49.44 42.1 49.44 88.03 81.51 88.03 81.51 83.03 54.44 83.03"/>
  </g>
  <g>
    <g>
      <path class="cls-2" d="M128.92,32.25c1.2-2.04,2.82-3.64,4.88-4.78,2.05-1.15,4.3-1.72,6.75-1.72,2.8,0,5.29.69,7.47,2.06,2.18,1.37,3.76,3.32,4.75,5.84h-5.18c-.68-1.31-1.63-2.3-2.84-2.97s-2.61-1-4.2-1c-1.74,0-3.29.39-4.65,1.17-1.36.78-2.43,1.89-3.19,3.33-.77,1.44-1.15,3.1-1.15,4.99s.38,3.56,1.15,5.01c.77,1.45,1.83,2.56,3.19,3.35,1.36.78,2.91,1.17,4.65,1.17,1.59,0,2.99-.33,4.2-1,1.21-.67,2.16-1.66,2.84-2.97h5.18c-.98,2.52-2.56,4.46-4.75,5.82-2.18,1.36-4.67,2.04-7.47,2.04-2.47,0-4.73-.57-6.77-1.72-2.04-1.15-3.66-2.74-4.86-4.78-1.2-2.04-1.8-4.35-1.8-6.92s.6-4.88,1.8-6.92Z"/>
      <path class="cls-2" d="M181.19,47h-11l-1.89,5.37h-4.5l9.41-26.32h4.99l9.41,26.32h-4.54l-1.89-5.37ZM180.02,43.63l-4.31-12.36-4.35,12.36h8.66Z"/>
      <path class="cls-2" d="M216.24,26.09v3.36h-6.99v22.91h-4.31v-22.91h-7.03v-3.36h18.34Z"/>
      <path class="cls-2" d="M243.99,47h-11l-1.89,5.37h-4.5l9.41-26.32h4.99l9.41,26.32h-4.54l-1.89-5.37ZM242.82,43.63l-4.31-12.36-4.35,12.36h8.66Z"/>
      <path class="cls-2" d="M266.38,49.08h8.89v3.29h-13.2v-26.28h4.31v22.99Z"/>
      <path class="cls-2" d="M290.72,26.09v26.28h-4.31v-26.28h4.31Z"/>
      <path class="cls-2" d="M325.55,52.37h-4.31l-12.97-19.62v19.62h-4.31v-26.32h4.31l12.97,19.58v-19.58h4.31v26.32Z"/>
      <path class="cls-2" d="M354.62,47h-11l-1.89,5.37h-4.5l9.41-26.32h4.99l9.41,26.32h-4.54l-1.89-5.37ZM353.45,43.63l-4.31-12.36-4.35,12.36h8.66Z"/>
    </g>
    <g>
      <path class="cls-2" d="M189.06,70.99v3.97h5.28v1.16h-5.28v4.07h5.9v1.19h-7.8v-11.58h7.8v1.19h-5.9Z"/>
      <path class="cls-2" d="M202.89,69.81l4.51,9.94,4.55-9.94h2.02l-5.47,11.57h-2.18l-5.47-11.57h2.04Z"/>
      <path class="cls-2" d="M222.09,70.99v3.97h5.28v1.16h-5.28v4.07h5.9v1.19h-7.8v-11.58h7.8v1.19h-5.9Z"/>
      <path class="cls-2" d="M246.42,81.38h-1.89l-7.61-9.21v9.21h-1.89v-11.58h1.89l7.61,9.19v-9.19h1.89v11.58Z"/>
      <path class="cls-2" d="M262.71,69.81v1.18h-3.95v10.39h-1.89v-10.39h-3.97v-1.18h9.81Z"/>
      <path class="cls-2" d="M272.09,80.74c-1.11-.5-1.99-1.21-2.63-2.11-.64-.9-.97-1.92-.97-3.05s.32-2.14.97-3.04c.64-.9,1.52-1.6,2.63-2.11,1.11-.5,2.33-.75,3.68-.75s2.59.25,3.7.75c1.11.5,1.98,1.2,2.62,2.1.64.9.96,1.91.96,3.05s-.32,2.16-.96,3.05c-.64.9-1.51,1.6-2.62,2.1-1.11.5-2.34.75-3.7.75s-2.57-.25-3.68-.75ZM278.5,79.57c.81-.38,1.45-.91,1.91-1.59.46-.69.7-1.48.7-2.39s-.23-1.71-.7-2.4c-.46-.69-1.1-1.22-1.91-1.59-.81-.37-1.72-.56-2.73-.56s-1.92.19-2.73.56c-.81.37-1.45.9-1.91,1.59s-.7,1.49-.7,2.4.23,1.7.7,2.39c.46.69,1.1,1.22,1.91,1.59.81.38,1.72.56,2.73.56s1.92-.19,2.73-.56Z"/>
      <path class="cls-2" d="M291.72,81.09c-.76-.27-1.35-.65-1.78-1.13-.43-.48-.65-1.04-.67-1.67h2.02c.07.55.35,1.02.85,1.4.5.38,1.21.57,2.14.57s1.59-.18,2.12-.56c.53-.37.79-.84.79-1.42,0-.44-.15-.8-.46-1.08-.31-.28-.69-.49-1.14-.63-.46-.14-1.07-.3-1.85-.46-.96-.2-1.72-.4-2.3-.6-.58-.2-1.07-.51-1.48-.94-.41-.43-.61-1-.61-1.72,0-.63.2-1.19.6-1.68.4-.49.97-.86,1.69-1.13s1.56-.4,2.5-.4c1.36,0,2.47.27,3.34.81.87.54,1.35,1.26,1.47,2.16h-2.08c-.07-.48-.36-.88-.86-1.22-.51-.34-1.19-.51-2.05-.51-.79,0-1.43.17-1.93.5-.5.33-.75.8-.75,1.41,0,.42.15.76.45,1.03s.67.47,1.1.61c.44.14,1.05.3,1.84.47.96.21,1.73.42,2.31.62s1.08.52,1.5.95c.42.43.62,1,.62,1.73,0,.56-.19,1.1-.56,1.59-.37.5-.93.9-1.66,1.21-.73.31-1.6.46-2.6.46s-1.81-.14-2.57-.41Z"/>
    </g>
    <rect class="cls-2" x="316.76" y="73.83" width="44.29" height="1.79"/>
    <rect class="cls-2" x="127.12" y="73.83" width="44.29" height="1.79"/>
  </g>
</svg>